<?xml version="1.0" encoding="UTF-8" standalone="no"?>
<!-- Created with Inkscape (http://www.inkscape.org/) -->

<svg
   width="80.70266mm"
   height="27.416288mm"
   viewBox="0 0 80.70266 27.416288"
   version="1.1"
   id="svg1"
   xmlns="http://www.w3.org/2000/svg"
   xmlns:svg="http://www.w3.org/2000/svg">
  <defs
     id="defs1" />
  <g
     id="layer1"
     transform="translate(-102.31857,-152.8216)">
    <path
       style="fill:currentColor;stroke-width:0.264583"
       id="path136"
       d="m 103.49281,154.52956 c 0.0358,-0.15596 0.27244,-0.76352 0.38286,-0.86413 0.0431,-0.0392 0.22826,-0.002 0.1734,-0.022 -0.53219,-0.19021 -1.06574,-0.59861 -1.62142,-0.49558 -0.2591,0.048 0.0232,0.52652 0.0348,0.78978 0.17046,4.05849 0.5771,8.1022 1.02351,12.1381 0.24605,2.31315 0.47314,4.62825 0.70841,6.94249 0.0558,0.54887 0.23372,2.49364 0.39866,3.11611 0.10946,0.41311 0.31257,0.79552 0.46886,1.19329 -0.0428,0.30851 0.27157,0.65212 0.23405,0.98872 -0.006,0.0529 -0.0304,-0.1022 -0.041,-0.15437 -0.042,-0.20726 -0.0816,-0.41507 -0.11675,-0.6236 -0.11827,-0.70084 -0.21726,-1.43188 -0.31741,-2.13312 -0.29843,-2.2367 -0.57618,-4.47587 -0.67833,-6.73111 0.0298,-0.21618 0.0323,-0.43794 0.0894,-0.64856 0.29522,-1.08826 1.43033,-1.55645 2.29126,-2.11845 0.18922,-0.1769 0.39238,-0.33996 0.56764,-0.53069 0.18476,-0.20106 0.3373,-0.42953 0.50946,-0.64147 0.41683,-0.51315 0.69564,-0.7986 1.05535,-1.35836 0.43713,-0.68022 0.55742,-1.00753 0.89815,-1.74327 0.71425,-1.89507 1.13724,-3.90177 1.42614,-5.90364 0.014,-1.08802 0.35867,-1.33291 -1.63817,-1.52997 -0.18294,-0.018 -0.0268,0.36684 -0.0312,0.55062 -0.0195,0.81342 -0.01,1.62728 -0.0141,2.44092 0.017,2.78811 0.0124,5.58187 0.19288,8.36573 0.0868,1.33935 0.24759,2.76783 0.38644,4.10452 0.15586,1.52169 0.37596,3.03594 0.61857,4.54591 0.11452,0.71281 0.22372,1.41213 0.42826,2.10396 0.50521,0.57959 0.26256,0.33021 0.71375,0.76174 0,0 0.34303,0.16336 0.34303,0.16336 v 0 c 0.31274,-0.0566 0.14631,-0.007 0.4908,-0.1756 -0.0726,-0.6976 -0.23688,-1.37651 -0.36495,-2.06606 -0.28182,-1.51746 -0.53196,-3.0413 -0.70286,-4.57576 -0.12848,-1.1776 -0.33178,-2.93689 -0.41143,-4.10546 -0.18864,-2.76755 -0.17907,-5.54818 -0.12487,-8.31972 0.0286,-1.20757 0.0202,-1.30712 0.08,-2.39711 0.009,-0.16731 0.15717,-0.38626 0.0355,-0.50145 -0.45451,-0.43019 -1.03415,-0.71547 -1.6011,-0.98043 -0.27604,-0.129 1.02926,1.41511 0.18338,0.8955 0.0741,0.49856 0.22287,1.41602 0.23683,1.89478 0.0439,1.50515 -0.31063,3.00818 -0.78711,4.42322 -0.13484,0.30209 -0.25083,0.61332 -0.40453,0.90626 -0.6996,1.3334 -1.774,2.31421 -3.0863,3.02996 -0.53569,0.34339 -1.26189,0.69058 -1.65025,1.21858 -0.43172,0.58693 -0.35988,1.2946 -0.2027,1.95719 0.4372,2.30539 0.88891,4.60861 1.11508,6.94721 0.1017,0.71217 0.19793,1.42385 0.31734,2.13327 0.0351,0.20882 0.0566,0.42138 0.11631,0.62453 0.0219,0.0745 0.0475,0.1924 0.12511,0.19663 0.26112,0.0142 0.0556,-1.00621 0.28056,-0.73263 0.11154,-0.2652 0.29528,-0.51061 0.3346,-0.79561 0.0709,-0.51378 -0.1735,-2.67039 -0.21093,-3.02446 -0.24551,-2.32229 -0.53442,-4.64006 -0.75324,-6.96524 -0.42418,-4.00928 -0.84666,-8.02738 -0.90079,-12.06229 -0.0351,-1.40105 0.18851,-0.72123 -1.64083,-1.9316 -0.0733,-0.0485 0.13296,0.12062 0.1734,0.19866 0.16879,0.3258 0.28638,0.8954 0.38286,1.25429 z" />
    <path
       style="fill:currentColor;stroke-width:0.264583"
       id="path137"
       d="m 114.8447,172.60013 c 0.9396,0.19133 1.67202,-0.28561 2.14012,-1.09384 0.0951,-0.16426 0.15193,-0.3479 0.2279,-0.52185 0.0751,-0.52718 0.12573,-1.3781 -0.42204,-1.71614 -1.72054,-1.06179 -1.15162,-1.15863 -2.13782,-0.79397 -0.1223,0.13513 -0.26799,0.25231 -0.36691,0.40539 -0.57504,0.88988 -0.7189,2.26875 -0.67137,3.29554 0.0157,0.33901 0.077,0.67435 0.11554,1.01153 0.0909,0.31003 0.15104,0.63078 0.27269,0.93008 0.56912,1.40032 1.72936,1.99756 3.1336,2.57667 0.22124,0.0912 0.48719,0.0519 0.71784,-0.0119 0.28658,-0.0793 0.52936,-0.27097 0.79405,-0.40645 1.96503,-1.74742 3.1546,-4.15075 3.9979,-6.60668 0.21296,-0.62018 0.37773,-1.25586 0.5666,-1.8838 0.64841,-2.62808 1.01625,-5.33272 1.01103,-8.04282 -0.003,-1.38704 -0.0905,-1.89767 -0.23446,-3.23253 -0.16153,-0.64539 -0.27383,-2.02391 -1.02596,-2.39 -0.67341,-0.32776 -1.34339,-0.76693 -2.09013,-0.82435 -0.2681,-0.0206 -0.37251,0.39375 -0.51079,0.62436 -0.18703,0.31194 -0.30501,0.6604 -0.45751,0.99059 -1.13971,3.82288 -1.01077,7.8545 -0.8309,11.7951 0.31519,2.62971 0.44725,5.7665 1.76909,8.13736 0.16706,0.29962 0.39194,0.56311 0.58791,0.84467 1.17202,1.08431 2.84797,2.32789 4.39905,1.32672 0.6225,-0.4018 0.94444,-0.92777 1.39281,-1.50313 1.36061,-2.32456 2.10053,-4.97 2.56925,-7.60924 0.0964,-0.54265 0.15689,-1.09105 0.23534,-1.63657 0.19088,-2.18693 0.29686,-4.43973 -0.21008,-6.59675 -0.0645,-0.27449 -0.16075,-0.54055 -0.24113,-0.81082 -0.0978,-0.20017 -0.17537,-0.4116 -0.29348,-0.60051 -0.51396,-0.82196 -1.7624,-1.71371 -2.7342,-1.49037 -0.37685,0.0866 -0.48101,0.21362 -0.78098,0.43813 -0.10548,0.14562 -0.23294,0.27761 -0.31643,0.43686 -0.62273,1.18787 -0.72748,3.34199 -0.84526,4.66676 -0.15645,2.68218 0.10942,5.3609 0.484,8.0136 0.34083,1.65196 0.6148,3.43699 1.40661,4.95037 0.10178,0.19453 0.22819,0.37516 0.34228,0.56274 0.74851,0.88408 2.26363,2.00642 3.50618,1.61839 0.51494,-0.16081 0.71004,-0.39208 1.12318,-0.73034 1.39736,-1.49785 1.98447,-3.46253 2.38367,-5.42388 0.19391,-1.61546 0.1558,-1.80255 -1.86651,-2.44839 -0.14716,-0.047 -0.36587,0.44179 -0.51957,0.73363 -0.52285,1.42284 -0.62723,2.93495 -0.50166,4.4332 0.32383,2.18577 1.20975,2.30073 3.15145,3.35416 1.23675,0.074 1.80654,-0.89089 2.29337,-1.87545 0.35343,-1.03992 0.69519,-2.15716 0.60634,-3.2723 -0.0136,-0.17031 -0.057,-0.33692 -0.0855,-0.50538 -0.0639,-0.14764 -0.10969,-0.30446 -0.19157,-0.44292 -0.5046,-0.85335 -2.09375,-1.44266 -2.72045,-1.67757 -0.20463,-0.0767 -0.86921,0.1992 -1.02601,0.25492 -0.16147,0.11088 -0.36243,0.17937 -0.48439,0.33264 -0.27722,0.34837 -0.21026,0.79382 -0.27124,1.19259 -0.0338,0.22123 -0.0938,0.43767 -0.14064,0.65651 0,0 0.0347,0.0198 0.0347,0.0198 v 0 c 0.14748,-0.15788 0.259,-0.35954 0.44246,-0.47366 0.59394,-0.36944 1.40031,-0.25863 1.98514,-0.6608 0.17226,-0.046 0.34048,-0.11139 0.51678,-0.13799 0.15786,-0.0238 0.58491,0.10704 0.47877,-0.0122 -0.33048,-0.37123 -0.8257,-0.55356 -1.23431,-0.83653 -0.11906,-0.0824 0.25347,0.14311 0.3655,0.23488 0.32477,0.26601 0.33323,0.36036 0.53893,0.7227 0.0369,0.16027 0.0898,0.31769 0.11071,0.48082 0.13936,1.08589 -0.18984,2.19474 -0.53497,3.20797 -0.45729,0.90526 -0.99275,1.84476 -2.15566,1.63412 0.40905,0.25748 0.81501,0.51994 1.22715,0.77243 0.12212,0.0748 -0.24811,-0.14605 -0.35684,-0.23925 -0.56066,-0.48061 -0.79403,-1.20755 -0.90697,-1.91105 -0.14229,-1.46456 -0.055,-2.93747 0.46515,-4.32895 0.0757,-0.13191 0.13255,-0.2767 0.22724,-0.39575 0.46192,-0.58076 1.62353,0.48192 -1.20572,-1.09816 -0.0808,-0.0451 0.12197,0.14612 0.14758,0.235 0.11518,0.39956 0.0406,0.79441 0.0116,1.1991 -0.3203,1.93794 -0.89881,3.87918 -2.31334,5.31263 -0.50756,0.37431 -0.93468,0.71702 -1.60296,0.65448 -0.17024,-0.0159 -0.62343,-0.23681 -0.49878,-0.11976 0.31009,0.29119 0.69214,0.50915 1.0856,0.67081 0.17391,0.0714 -0.27065,-0.26105 -0.40598,-0.39157 -0.34184,-0.51672 -0.46659,-0.65744 -0.7181,-1.25928 -0.55967,-1.33921 -0.82971,-2.79279 -1.11181,-4.20737 -0.38699,-2.63629 -0.6659,-5.30094 -0.48676,-7.96863 0.094,-1.06966 0.18673,-2.13457 0.40812,-3.18743 0.0885,-0.42096 0.22003,-0.97631 0.43348,-1.36549 0.0776,-0.1415 0.19836,-0.25461 0.29754,-0.38192 0.26903,-0.18368 0.37601,-0.30621 0.71507,-0.34139 0.12816,-0.0133 0.48127,0.12008 0.38501,0.0344 -0.35314,-0.3142 -0.77128,-0.55561 -1.19838,-0.75811 -0.15571,-0.0738 0.26558,0.22476 0.36713,0.36399 0.12962,0.17771 0.21299,0.38491 0.31949,0.57737 0.0891,0.26709 0.19467,0.52922 0.2672,0.80127 0.57051,2.13991 0.47957,4.3973 0.31083,6.58146 -0.0748,0.5432 -0.13148,1.0892 -0.22447,1.62958 -0.44941,2.61171 -1.18525,5.23832 -2.58047,7.50897 -0.57679,0.70289 -1.11734,1.47651 -2.07806,1.66021 -0.2345,0.0448 -0.76096,-0.22517 -0.71618,0.009 0.0665,0.34812 0.55946,0.43524 0.84194,0.64926 0.22624,0.17142 -0.4488,-0.34761 -0.67321,-0.52141 -0.20902,-0.275 -0.44889,-0.52908 -0.62707,-0.825 -1.38179,-2.29481 -1.55395,-5.523 -1.87013,-8.111 -0.19209,-3.89996 -0.33109,-7.90099 0.89425,-11.66361 0.15409,-0.3106 0.27466,-0.64022 0.46228,-0.93181 0.12187,-0.18941 0.55478,-0.29434 0.45734,-0.49741 -0.21432,-0.44667 -0.78106,-0.61105 -1.1486,-0.94325 -0.14302,-0.12928 0.35374,0.1813 0.47311,0.33269 0.45177,0.57294 0.5352,1.29601 0.70516,1.97452 0.16859,1.32124 0.27254,1.85796 0.28963,3.23169 0.0335,2.6963 -0.32345,5.39828 -0.9776,8.01007 -0.19051,0.62202 -0.35828,1.25146 -0.57153,1.86605 -0.70656,2.03637 -1.65955,4.10113 -3.15865,5.68529 -0.26196,0.27682 -0.57185,0.50398 -0.85777,0.75597 -0.251,0.11056 -0.48408,0.27782 -0.75302,0.33169 -0.2201,0.0441 -0.75416,-0.2551 -0.67183,-0.0463 0.13231,0.33565 0.53825,0.55038 0.89408,0.61005 0.25841,0.0433 -0.39741,-0.34663 -0.55797,-0.55369 -0.49361,-0.63652 -0.4988,-0.88999 -0.74521,-1.65505 -0.0402,-0.32884 -0.10342,-0.65567 -0.12057,-0.98651 -0.0541,-1.04369 0.0789,-2.26587 0.60387,-3.19469 0.0733,-0.12972 0.1851,-0.23355 0.27764,-0.35033 0.69953,-0.1979 0.46944,-0.053 -0.81628,-0.8014 -0.11293,-0.0657 0.22055,0.14696 0.30394,0.24756 0.33019,0.39836 0.40171,0.91609 0.40897,1.41271 -0.0476,0.17555 -0.0675,0.36111 -0.14293,0.52665 -0.35938,0.78898 -1.16815,1.21129 -1.99901,0.96312 z" />
    <path
       style="fill:currentColor;stroke-width:0.264583"
       id="path138"
       d="m 137.98437,174.81226 c 0.14561,0.78568 0.19542,1.59295 0.0622,2.38542 -0.0193,0.11468 -0.35822,1.4606 -0.38938,1.58514 -0.11038,1.01253 -0.0252,0.53522 -0.23843,1.43487 0,0 0.0345,0.0202 0.0345,0.0202 v 0 c 0.77721,-0.56368 0.38008,-0.2621 1.18815,-0.909 0.11794,-0.23589 0.26131,-0.46069 0.35381,-0.70766 0.42091,-1.12374 0.34511,-2.30573 -0.12239,-3.39577 z" />
    <path
       style="fill:currentColor;stroke-width:0.264583"
       id="path139"
       d="m 143.84676,156.22721 c -0.0537,0.47479 -0.19855,0.93441 -0.2598,1.40758 -0.0751,0.58038 -0.13909,1.94906 -0.16202,2.49317 -0.058,1.37662 -0.0602,1.85635 -0.0899,3.26886 0.0132,2.76714 -0.0126,5.56654 0.39024,8.31299 0.0567,0.38682 0.14675,0.76802 0.22013,1.15204 0.10288,0.29208 0.17397,0.59739 0.30863,0.87625 0.53311,1.10398 1.90569,1.977 3.14042,1.79911 0.58677,-0.0845 0.84182,-0.28394 1.35743,-0.56219 0.19699,-0.15561 0.42794,-0.27593 0.59098,-0.46681 0.16208,-0.18975 0.23985,-0.43777 0.36574,-0.65324 0.32197,-0.55107 0.65595,-1.09418 1.02429,-1.61512 0,0 -0.0344,-0.0204 -0.0344,-0.0204 v 0 c -0.10752,0.13667 -0.19171,0.29547 -0.32254,0.41001 -0.87672,0.76759 -2.05863,0.88989 -3.0684,1.39093 -0.48104,0.19847 -0.85595,0.40487 -1.38435,0.43499 -0.2028,0.0116 -0.71843,-0.23544 -0.60576,-0.0664 0.22161,0.33248 0.60842,0.58519 1.00103,0.65944 0.52971,0.10017 -1.87825,-1.52468 -0.78165,-1.41587 -0.0842,-0.38356 -0.18888,-0.76318 -0.25267,-1.15066 -0.44952,-2.73058 -0.40261,-5.54855 -0.4274,-8.30488 0.0384,-1.31699 0.0528,-1.96376 0.10688,-3.25553 0.008,-0.19557 0.11044,-2.23971 0.11199,-2.51479 0.003,-0.5229 -0.0552,-1.04479 -0.0547,-1.56776 z" />
    <path
       style="fill:currentColor;stroke-width:0.264583"
       id="path140"
       d="m 142.39929,168.88812 c 0.78852,-0.002 1.59617,-0.19272 2.25947,-0.63899 0.44136,-0.29695 0.70134,-0.63627 1.04934,-1.02637 0.10879,-0.19102 0.19772,-0.39481 0.32638,-0.57307 0.1171,-0.16227 0.27434,-0.29152 0.40623,-0.44203 0.37196,-0.42447 0.74395,-0.8467 1.12081,-1.26727 0,0 -0.0342,-0.0207 -0.0342,-0.0207 v 0 c -0.85059,0.94918 -1.40269,1.44845 -2.71013,1.73046 -0.36354,0.13286 -1.28927,0.46674 -1.64863,0.61566 -0.22498,0.0932 -0.43797,0.21449 -0.66504,0.30253 -0.45243,0.17541 -0.93262,0.23071 -1.3806,0.41386 z" />
    <path
       style="fill:currentColor;stroke-width:0.264583"
       id="path141"
       d="m 148.19854,154.18145 c 0.40092,2.00198 0.67567,4.03018 0.92777,6.05597 0.31059,2.63791 0.61646,5.27607 0.93762,7.91273 0.21096,1.871 0.50855,3.72624 0.85873,5.57547 0.10391,0.55899 0.19775,1.11971 0.28718,1.68117 0.016,0.1004 0.0698,0.44557 0.0733,0.44683 0.57806,0.20912 1.1811,0.34134 1.77166,0.51201 0.43001,-1.60569 0.79162,-3.22878 1.16136,-4.84914 0.21418,-0.82245 0.38831,-1.6624 0.70849,-2.45323 0.14807,-0.3657 0.27385,-0.69859 0.62642,-0.88417 0.74193,0.41194 -0.92698,-0.51857 -1.27867,-0.60484 -0.1305,-0.032 0.10645,0.24717 0.14785,0.375 0.19768,0.61033 0.26502,1.24452 0.34511,1.87767 0.22683,1.38656 0.23035,2.79849 0.43398,4.18647 0.14806,0.52054 0.55582,0.83245 0.89185,1.22233 0,0 0.0362,0.017 0.0362,0.017 v 0 c 0.24099,-0.22986 0.53992,-0.0101 0.60973,-0.46631 0.0651,-1.38679 -0.18828,-2.76658 -0.32089,-4.14328 -0.15586,-1.34117 -0.28395,-3.74226 -2.43296,-3.46153 -0.83527,0.73567 -1.00035,2.49668 -1.30956,3.50405 -0.37941,1.60134 -0.74648,3.20751 -1.22068,4.78415 0.49978,0.3934 0.984,0.80743 1.49935,1.18021 0.0373,0.027 -0.0368,-0.085 -0.0473,-0.12985 -0.0242,-0.10343 -0.0373,-0.20915 -0.0566,-0.3136 -0.10457,-0.56659 -0.21197,-1.13267 -0.31736,-1.6991 -0.35401,-1.85255 -0.67819,-3.70865 -0.89913,-5.58288 -0.34212,-2.63906 -0.65223,-5.28156 -0.96249,-7.92456 -0.25404,-2.07666 -0.42426,-4.20783 -1.12538,-6.19105 z" />
    <path
       style="fill:currentColor;stroke-width:0.264583"
       id="path142"
       d="m 158.92055,171.49243 c 0.74773,-0.0877 1.45577,-0.43375 1.86854,-1.08768 0.0941,-0.14905 0.1549,-0.31665 0.23234,-0.47497 0.19337,-0.44799 0.5087,-1.70474 -0.0111,-2.06751 -0.41534,-0.28988 -0.8758,-0.50906 -1.31369,-0.76359 -0.11513,0.001 -0.23276,-0.0209 -0.3454,0.003 -1.05223,0.22275 -1.18234,1.61975 -1.30726,2.46214 -0.0458,1.39599 0.22605,2.8423 1.01277,4.0211 0.12054,0.1806 0.26752,0.34207 0.40127,0.5131 0.87057,0.68615 1.07042,0.89201 2.51958,1.42368 0.17236,0.0632 0.36854,-0.0406 0.54091,-0.10385 0.68248,-0.25023 1.05616,-0.8213 1.45994,-1.38215 0.51383,-0.82427 0.95725,-1.68957 1.3473,-2.57841 0.39765,-0.47763 0.32965,-0.35685 -1.51328,-0.68461 -0.12131,-0.0216 0.0502,0.24137 0.082,0.36041 0.13047,0.48912 0.28454,0.97296 0.41906,1.46119 0.29204,1.11532 0.17839,1.32534 1.94845,1.55149 0.14542,0.0186 -8e-4,-0.29325 -0.006,-0.43978 -0.007,-0.21079 -0.0191,-0.42136 -0.0286,-0.63204 -0.0257,-1.46774 0.0742,-2.93813 0.2755,-4.3917 0.0112,-0.11859 0.0395,-0.2368 0.0335,-0.35576 -0.01,-0.19613 -0.18161,-0.43504 0.12443,-0.36028 0.0279,0.007 -0.10526,-0.0327 -0.0855,-0.0118 0.0875,0.0924 0.19939,0.15831 0.29908,0.23746 0.41715,0.32197 0.72314,0.88312 1.26072,1.01728 0.25563,0.002 0.38482,0.0821 0.43143,0.32856 -0.0336,0.15988 -0.2677,0.1952 -0.385,0.30971 0.0667,0.79986 1.06889,1.15412 1.78693,1.09462 0.66243,-0.1955 1.02362,-0.7534 1.17954,-1.39612 0.024,-0.24025 0.0158,-0.52343 -0.21867,-0.67234 -0.17479,-0.111 -1.21942,-1.09626 -1.89163,-0.92462 -0.0979,0.025 -0.18234,0.0869 -0.27351,0.13038 -0.0806,0.0856 -0.17834,0.15775 -0.24182,0.25669 -0.50582,0.78826 -0.52623,2.02659 -0.55942,2.92642 0.0377,0.8333 0.18104,1.7488 0.84286,2.33565 0.13988,0.12404 0.30324,0.22139 0.46964,0.30664 0.707,0.36223 1.43144,0.68937 2.14715,1.03406 0.21359,-0.0339 0.43338,-0.0404 0.64076,-0.10172 0.73666,-0.21796 1.54331,-0.67253 1.929,-1.36568 0.13108,-0.23556 0.15295,-0.51804 0.25611,-0.76709 0.0923,-0.22281 0.21908,-0.42971 0.32863,-0.64457 0,0 -0.0341,-0.021 -0.0341,-0.021 v 0 c -1.51731,0.7751 0.0858,0.0113 -1.73245,0.68273 -0.9715,0.35876 -1.80294,1.10411 -2.8865,1.07332 0.36364,0.25961 0.7549,0.48435 1.09094,0.77881 0.14081,0.12339 -0.34669,-0.14938 -0.49818,-0.25939 -0.70608,-0.51278 -0.88997,-1.40404 -0.93514,-2.22015 0.0254,-0.84451 0.0291,-2.06651 0.49763,-2.80991 0.0503,-0.0798 0.1299,-0.13673 0.19485,-0.20509 0.64395,-0.28881 1.0314,0.25712 -0.87747,-0.8343 -0.0726,-0.0415 0.13922,0.094 0.1999,0.15153 0.22753,0.21573 0.18861,0.21179 0.299,0.50246 0.0871,0.75537 -0.10529,1.13381 -0.84153,1.39073 -0.0838,0.007 -0.16734,0.0247 -0.25143,0.022 -0.0704,-0.002 -0.26284,-0.0807 -0.20816,-0.0363 1.23611,1.00374 0.50377,0.28307 0.33759,-0.0452 -0.11982,-0.20209 -0.12424,-0.42463 -0.22606,-0.62817 -0.14691,-0.24177 -0.29615,-0.42625 -0.6026,-0.41716 -0.0315,-0.0105 -0.17689,-0.0501 -0.21633,-0.0882 -0.23423,-0.2267 -0.3444,-0.58174 -0.64094,-0.75524 -0.4697,-0.38488 -1.05997,-0.90534 -1.71357,-0.86439 -0.12953,0.008 -0.27159,0.0106 -0.38095,0.0805 -0.10251,0.0655 -0.14066,0.19854 -0.21099,0.29781 -0.25867,1.45017 -0.28916,2.93176 -0.32999,4.40096 0.002,0.20529 0.006,0.41057 0.007,0.61587 5.3e-4,0.13223 -0.10341,0.31039 -0.003,0.39667 2.24343,1.93158 1.6398,1.17664 1.34949,0.11031 -0.14021,-0.48169 -0.29217,-0.96299 -0.41726,-1.44882 -0.0311,-0.1208 0.0161,-0.28598 -0.08,-0.36555 -1.60638,-1.3307 -1.38828,-1.68171 -1.73373,-0.99693 -0.3308,0.89822 -0.76114,1.76151 -1.27685,2.56766 -0.37768,0.50939 -0.73842,1.07615 -1.39495,1.25308 -0.1608,0.0433 -0.59585,-0.10227 -0.49852,0.0328 0.24338,0.33789 0.68954,0.46712 1.03067,0.70594 0.16086,0.11261 -0.32653,-0.21819 -0.4898,-0.32729 -0.36262,-0.42961 -0.54763,-0.60445 -0.81695,-1.12184 -0.53433,-1.02646 -0.72423,-2.20375 -0.77853,-3.34552 0.0588,-0.62578 0.0781,-1.88182 0.57831,-2.35371 0.2002,-0.18888 0.3309,-0.13088 0.56738,-0.11316 -0.24708,-0.15801 -0.47076,-0.36067 -0.74125,-0.47404 -0.10889,-0.0456 0.17431,0.16307 0.23741,0.26287 0.0684,0.10819 0.12375,0.22784 0.15184,0.35273 0.10604,0.47128 -0.066,0.95307 -0.22015,1.38856 -0.075,0.15036 -0.13443,0.30953 -0.22496,0.45108 -0.39891,0.62368 -1.08322,0.94204 -1.79858,1.01955 z" />
    <path
       style="fill:currentColor;stroke-width:0.264583"
       id="path144"
       d="m 174.27942,157.61994 c 1.06122,2.2144 1.95519,4.50608 2.91764,6.76474 0.15654,0.30622 1.02867,3.0863 2.00487,2.39495 0.18845,-0.13345 -0.10645,-0.4497 -0.17377,-0.67058 -0.1032,-0.33866 -0.22499,-0.67139 -0.33748,-1.00708 -0.41028,-1.18048 -0.91953,-2.32215 -1.4074,-3.47147 -0.19083,-0.44954 -0.60656,-1.37645 -0.71785,-1.89123 -0.0532,-0.24592 -0.0414,-0.5015 -0.0621,-0.75225 0.0405,-0.22188 0.0383,-0.45597 0.12145,-0.66565 0.16837,-0.42483 0.68809,-1.00808 0.98486,-1.31324 0.7294,-0.75004 1.53965,-1.4214 2.35898,-2.0686 0.27989,-0.22982 0.73801,-0.65521 1.10862,-0.80755 0.0926,-0.0381 0.3859,0.0219 0.29912,-0.028 -0.44827,-0.25814 -0.90809,-0.56955 -1.42299,-0.61917 -0.16079,-0.0155 0.0255,0.32264 0.0217,0.48414 -0.007,0.27818 -0.0352,0.55539 -0.0528,0.83309 -0.25316,2.87835 -0.32047,5.76792 -0.39611,8.65504 -0.0105,0.49551 -0.0221,0.991 -0.0314,1.48653 -0.0173,0.92236 -0.0558,1.55339 0.0487,2.46159 0.41516,3.60666 -0.0895,-1.41826 0.44966,1.85521 0.0311,0.18896 -0.0236,0.38228 -0.0354,0.57342 -0.0244,0.15291 -0.0488,0.30581 -0.0732,0.45871 0,0 0.0351,0.0193 0.0351,0.0193 v 0 c 0.0667,-0.13051 0.13335,-0.26103 0.20002,-0.39154 0.56594,-1.65589 -0.33666,0.80326 0.57961,-1.02141 0.28503,-0.5676 0.3076,-1.23902 0.33412,-1.85227 0.0403,-0.9328 -0.0193,-1.86822 0.0319,-2.80083 0.0558,-2.87884 0.13656,-5.75984 0.43019,-8.62614 0.027,-0.27759 0.0584,-0.55479 0.0811,-0.83277 0.0149,-0.18321 0.15995,-0.41912 0.0314,-0.55054 -1.67418,-1.71214 -1.72686,-1.22937 -2.92818,-0.094 -0.69727,0.74881 -1.42901,1.47435 -2.0988,2.2479 -0.35462,0.40954 -0.76506,0.88107 -0.92889,1.41803 -0.0705,0.2311 -0.0514,0.4805 -0.0771,0.72075 0.0469,0.27115 0.0657,0.54866 0.14061,0.81346 0.14788,0.52298 0.60766,1.48331 0.81919,1.94538 0.52387,1.14436 1.06567,2.28391 1.45476,3.48388 0.0997,0.32709 0.21214,0.65056 0.29903,0.98127 0.0533,0.20272 -0.007,0.45138 0.12093,0.61706 0.21387,0.276 0.53457,0.45712 0.84106,0.62439 0.0956,0.0522 -0.13717,-0.17104 -0.18744,-0.26767 -0.21265,-0.40876 -0.66345,-1.51501 -0.80536,-1.85327 -0.94575,-2.32774 -1.80637,-4.71824 -3.11482,-6.87266 z" />
    <path
       style="fill:currentColor;stroke-width:0.264583"
       id="path145"
       d="m 179.08545,174.84088 c -0.10147,0.96257 -0.0748,1.95493 0.45874,2.80049 0.09,0.14267 0.21328,0.26143 0.31992,0.39214 0.55152,0.30173 1.06345,0.69117 1.65455,0.9052 0.14014,0.0508 0.29789,-0.0683 0.41971,-0.15413 0.78225,-0.5513 0.94994,-1.8119 1.0652,-2.66455 0.05,-0.75694 0.006,-1.52847 -0.29009,-2.23781 -0.065,-0.15581 -0.11469,-0.34033 -0.25106,-0.43985 -1.75951,-1.28415 -1.25549,-1.27185 -2.37213,-1.08658 -0.97356,0.54777 -0.54375,0.70663 -0.48557,1.64545 0.0175,0.28219 -0.0347,0.56439 -0.052,0.84658 0,0 0.0352,0.0191 0.0352,0.0191 v 0 c 0.11726,-0.22497 0.16221,-0.5063 0.35177,-0.6749 0.20334,-0.18085 0.50848,-0.19522 0.75532,-0.30975 1.56206,-0.72478 -0.40393,0.097 0.91009,-0.4404 0.61298,0.0333 1.44643,0.14018 -0.85064,-0.75057 -0.15533,-0.0602 0.21692,0.25719 0.29081,0.40651 0.33315,0.67325 0.38585,1.45502 0.36685,2.18938 -0.0602,0.72302 -0.10329,1.62014 -0.4475,2.28283 -0.0704,0.13551 -0.17044,0.26322 -0.29681,0.34893 -0.0966,0.0656 -0.41348,-0.008 -0.34031,0.0832 0.22403,0.27869 0.59291,0.39986 0.88937,0.59979 -0.12695,-0.128 -0.27003,-0.2418 -0.38084,-0.384 -0.63662,-0.81701 -0.85102,-1.90144 -0.86122,-2.9127 z" />
  </g>
</svg>
