<?xml version="1.0" encoding="UTF-8" standalone="no"?>
<!-- Created with Inkscape (http://www.inkscape.org/) -->

<svg
   width="15.403404mm"
   height="21.197309mm"
   viewBox="0 0 15.403404 21.197309"
   version="1.1"
   id="svg1"
   xmlns="http://www.w3.org/2000/svg"
   xmlns:svg="http://www.w3.org/2000/svg">
  <defs
     id="defs1" />
  <g
     id="layer1"
     transform="translate(-50.687367,-85.152581)">
    <path
       style="fill:currentColor;stroke-width:0.138109"
       id="path115"
       d="m 58.178807,101.75895 c 0.0383,0.0691 0.07079,0.14583 0.114854,0.20745 0.05939,0.083 0.121355,0.16585 0.193665,0.22396 0.561496,0.45119 0.784767,0.7918 1.337886,0.75375 0.133519,-0.009 0.268726,-0.0316 0.396118,-0.0899 0.148976,-0.0681 0.283269,-0.19032 0.424904,-0.28547 0.81347,-0.77551 1.361549,-1.93845 1.80212,-3.165831 0.114719,-0.33438 0.223224,-0.67859 0.285838,-1.04195 0.01684,-0.2356 -0.312976,-0.29173 -0.377231,-0.33101 0,0 -0.0161,-0.01 -0.0161,-0.01 v 0 c -0.12368,-0.0727 -0.295595,-0.0723 -0.364667,-0.25029 -0.0022,-0.006 0.03538,0.0116 0.0058,0.019 -0.01031,0.36515 -0.158716,0.70234 -0.231627,1.04232 -0.406009,1.227251 -0.939816,2.379951 -1.756338,3.113751 -0.370172,0.22511 -0.412054,0.31669 -0.806148,0.31911 -0.117434,6.3e-4 -0.368427,-0.22743 -0.34977,-0.0606 0.02555,0.22838 0.260479,0.2713 0.388893,0.41049 0.113827,0.12338 -0.420497,-0.4138 -0.329117,-0.39265 z" />
    <path
       style="fill:currentColor;stroke-width:0.138109"
       id="path116"
       d="m 62.628538,93.643159 c -0.297039,0.41728 -0.554194,1.09339 -0.587124,1.69479 -0.007,0.12816 0.0096,0.25674 0.0144,0.38511 0.04212,0.0968 0.06097,0.2256 0.126316,0.29041 0.560182,0.5556 0.901444,0.89283 1.510323,0.49288 0.335788,-0.22056 0.401832,-0.37412 0.6649,-0.73742 0.07379,-0.17429 0.162598,-0.33716 0.221388,-0.5229 0.1486,-0.4695 0.19645,-1.0472 0.0362,-1.52613 -0.0431,-0.12883 -0.0953,-0.26366 -0.176963,-0.34521 -0.245662,-0.24541 -0.525059,-0.41222 -0.787588,-0.61833 -0.197686,0.21105 -0.396583,0.41968 -0.595827,0.62768 0,0 0.01462,0.0136 0.01462,0.0136 v 0 c 0.09678,-0.0673 0.187033,-0.15922 0.29035,-0.20195 0.33081,-0.13679 0.404086,-0.043 0.736079,0.0707 -0.108678,-0.10141 -0.19652,-0.30164 -0.326048,-0.30423 -0.09034,-0.002 0.128866,0.18709 0.172184,0.30116 0.05013,0.13198 0.08694,0.27732 0.103857,0.42573 0.06473,0.56781 -0.08773,1.0767 -0.312806,1.52652 -0.09947,0.13689 -0.189209,0.29013 -0.298423,0.41069 -0.17547,0.19369 -0.449092,0.40164 -0.674665,0.44972 -0.09666,0.0206 -0.291713,-0.16239 -0.292753,-0.0219 -0.0013,0.17399 0.171114,0.28573 0.290607,0.3125 0.09407,0.0211 -0.13381,-0.1949 -0.200715,-0.29236 -0.02824,-0.13709 -0.07312,-0.26927 -0.08479,-0.41127 -0.0121,-0.1474 0.0026,-0.29731 0.0144,-0.44476 0.04091,-0.51484 0.18588,-0.93107 0.379389,-1.35924 z" />
    <path
       style="fill:currentColor;stroke-width:0.264583"
       id="path117"
       d="m 56.842817,85.234219 c -0.128756,-0.0272 -0.254687,-0.08 -0.38627,-0.0815 -1.152268,-0.0133 -2.365806,0.90725 -3.119258,1.68612 -0.303979,0.31423 -0.56234,0.6696 -0.843507,1.00439 -1.049414,1.61702 -1.904463,3.4133 -1.797331,5.39266 0.0231,0.42678 0.08206,0.85834 0.218025,1.26354 0.123611,0.36836 0.367146,0.68489 0.55072,1.02734 1.243914,1.17583 2.888062,2.25787 4.6551,1.72347 1.436063,-0.43429 2.283314,-1.46372 3.231409,-2.53321 0.246145,-0.39434 0.521285,-0.77201 0.738436,-1.18304 0.72186,-1.36634 1.104612,-3.03082 0.654034,-4.55246 -0.08567,-0.28931 -0.24752,-0.55035 -0.371281,-0.82552 -0.17281,-0.21491 -0.315611,-0.45789 -0.518436,-0.64475 -0.194831,-0.17949 -0.426474,-0.31793 -0.660749,-0.44159 -0.766447,-0.40456 -1.51571,-0.86227 -2.336511,-1.14047 -0.133514,-0.0453 -0.831898,0.5578 -0.847559,0.57032 0,0 0.03266,0.0231 0.03266,0.0231 v 0 c 0.379468,0.0522 0.765315,0.0699 1.138404,0.15665 0.381945,0.0888 0.87004,0.67224 1.117389,0.36796 0.231243,-0.28448 -0.668589,-0.36211 -0.876951,-0.66375 -0.149376,-0.21624 0.481639,0.22321 0.686435,0.38794 0.211492,0.17012 0.364268,0.40248 0.546401,0.60371 0.134512,0.26189 0.30797,0.50719 0.403532,0.78565 0.504532,1.47017 0.149307,3.11659 -0.547182,4.45411 -0.209889,0.40306 -0.479345,0.77219 -0.719018,1.15829 -0.711954,0.79548 -1.086427,1.33396 -2.015474,1.89599 -0.362874,0.21952 -0.756582,0.40014 -1.167093,0.50667 -0.369726,0.0959 -0.904854,-0.2067 -1.142175,0.0926 -0.177308,0.22361 0.830752,0.64771 0.545624,0.65975 -0.356439,0.0151 -0.568489,-0.43119 -0.852734,-0.64679 -0.202644,-0.32883 -0.46745,-0.62668 -0.607935,-0.98648 -0.153459,-0.39303 -0.225359,-0.81818 -0.260858,-1.23862 -0.164365,-1.94661 0.696576,-3.71157 1.733727,-5.292 0.279924,-0.32489 0.53644,-0.67152 0.839766,-0.97468 0.750282,-0.74987 1.955972,-1.62025 3.090021,-1.48961 0.132522,0.0153 0.254937,0.0787 0.382405,0.11799 z" />
    <path
       style="fill:currentColor;stroke-width:0.264583"
       id="path118"
       d="m 51.987602,105.70474 c 0.06952,-0.0924 0.151186,-0.17687 0.208561,-0.27729 0.169243,-0.29623 0.337931,-0.77664 0.448781,-1.08368 0.279373,-0.77385 0.491312,-1.56493 0.727445,-2.35265 0.329443,-0.9318 0.573977,-2.016051 1.30851,-2.736481 0.07778,-0.0763 0.172233,-0.13346 0.25835,-0.20019 0.263067,-0.1461 0.541602,-0.2313 0.844902,-0.21644 0.09041,0.004 0.182703,0.0116 0.268541,0.0403 0.09416,0.0315 0.176028,0.0919 0.264041,0.13788 -0.448029,-0.24806 -0.896059,-0.49612 -1.344088,-0.74418 0.621715,0.44534 0.92656,1.10832 1.183219,1.803791 0.283919,0.83654 0.367183,1.72113 0.516043,2.58761 0.142441,0.67153 0.179123,1.3582 0.304358,2.0321 0.04506,0.22864 0.08685,0.45795 0.134065,0.68604 0.01296,0.0747 0.02429,0.1156 0.08253,0.17024 0.214752,0.16903 0.51167,0.20041 0.667663,0.43512 0,0 0.0327,0.023 0.0327,0.023 v 0 c 0.291111,0.10484 0.574085,0.2289 0.862849,0.33982 0.08909,0.004 0.07484,-0.0678 0.06112,-0.14431 -0.0531,-0.23035 -0.105958,-0.46095 -0.154773,-0.69235 -0.144545,-0.67299 -0.186852,-1.36134 -0.321943,-2.03653 -0.163705,-0.87334 -0.249497,-1.76388 -0.507087,-2.61713 -0.24761,-0.72048 -0.521422,-1.414251 -1.132155,-1.909141 -1.309812,-0.77036 -1.996006,-1.65514 -3.334551,-0.87964 -0.08935,0.0789 -0.186794,0.14952 -0.268042,0.23675 -0.717701,0.77058 -0.961067,1.861901 -1.308431,2.819771 -0.382235,1.32815 -0.92122,2.70557 -0.697158,4.10769 z" />
    <path
       style="fill:currentColor;stroke-width:0.264583"
       id="path119"
       d="m 53.701914,105.66772 c 0.864892,-0.0154 1.729939,-0.10037 2.595364,-0.14239 0.432279,-0.0195 0.865228,-0.0212 1.297594,-0.0375 0.200025,-0.008 0.484042,-0.0238 0.488323,-0.0465 0.01683,-0.0894 -0.09763,-0.15356 -0.146437,-0.23034 -0.192415,-0.2657 -0.138432,-0.14286 -0.207298,-0.34506 0,0 -0.03325,-0.0223 -0.03325,-0.0223 v 0 c -0.333544,-0.0855 -0.130976,-0.0212 -0.592423,-0.23579 -0.161115,-0.0749 -0.31447,-0.16955 -0.483346,-0.22483 -0.08563,-0.028 -0.179403,-0.0181 -0.269436,-0.0216 -0.531442,-0.0204 -1.06367,0.0384 -1.594077,0.0573 -0.8435,0.0499 -1.687068,0.14493 -2.531737,0.14366 z" />
    <path
       style="fill:currentColor;stroke-width:0.264583"
       id="path123"
       d="m 64.963211,91.911149 c 0.07276,0.29223 0.102549,0.58972 0.09739,0.89014 0,0 0.0355,0.0184 0.0355,0.0184 v 0 c 0.03825,-0.28727 0.07047,-0.57147 -0.01908,-0.85449 z" />
    <path
       style="fill:currentColor;stroke-width:0.264583"
       id="path124"
       d="m 65.417762,91.497129 c 0.193472,0.21651 0.347522,0.47147 0.478842,0.72983 0.0451,0.0887 0.0989,0.17537 0.12327,0.27184 0.0188,0.0745 0.002,0.15367 0.004,0.23051 0,0 0.0357,0.0181 0.0357,0.0181 v 0 c -0.001,-0.077 -0.009,-0.15427 -0.003,-0.23112 0.005,-0.0675 0.0362,-0.13247 0.0341,-0.20011 -0.008,-0.26317 -0.17338,-0.50165 -0.3466,-0.68419 z" />
    <path
       style="fill:currentColor;stroke-width:0.264583"
       id="path125"
       d="m 61.137386,95.691369 c 0.0026,0.33899 0.138184,0.56379 0.307724,0.84165 0,0 0.03652,0.0163 0.03652,0.0163 v 0 c -0.120573,-0.24138 -0.173249,-0.51792 -0.200527,-0.78475 z" />
    <path
       style="fill:currentColor;stroke-width:0.264583"
       id="path126"
       d="m 60.809742,96.400739 c 0.06979,0.25981 0.222152,0.45799 0.41579,0.63792 0,0 0.03691,0.0154 0.03691,0.0154 v 0 c -0.139211,-0.17552 -0.249849,-0.37396 -0.316611,-0.58869 z" />
  </g>
</svg>
